<svg id="b6b562d8-fc20-4824-a73a-b048c4ffb150" data-name="Calque 1" xmlns="http://www.w3.org/2000/svg" viewBox="0 0 125.54 24.01"><defs><style>.ab6bfb7a-c206-436c-9f82-dd3c1e5d6324{fill:#2b00e7}</style></defs><path class="ab6bfb7a-c206-436c-9f82-dd3c1e5d6324" d="M10.51 9.44A4.72 4.72 0 0 1 15.34 14a4.5 4.5 0 0 1-.55 2.16h6A9.19 9.19 0 0 0 21 14a10 10 0 0 0-6.74-9.31V.22H9.07v9.43a5 5 0 0 1 1.44-.21ZM12.2 18.33a5.09 5.09 0 0 1-1.69.29A4.72 4.72 0 0 1 5.68 14a4.36 4.36 0 0 1 .47-2H.22A9.39 9.39 0 0 0 0 14a10.25 10.25 0 0 0 10.51 10 12 12 0 0 0 1.69-.13ZM25 7.94V4.86h3.08c0 .26.09 1.37.09 2A3.64 3.64 0 0 1 31.8 4.6v3c-2.28-.07-3.63.55-3.63 3.65v5H25ZM53.12.22V16.19h-3c-.07-.35-.13-.93-.16-1.19a3.4 3.4 0 0 1-3.21 1.45c-2.87 0-4.68-2.3-4.68-5.84s1.92-6 5.14-6c1.64 0 2.51.59 2.75 1.1V.22Zm-5.4 13.71c2.14 0 2.41-1.8 2.41-3.42 0-1.94-.29-3.41-2.34-3.41-1.64 0-2.47 1.3-2.47 3.44s.85 3.39 2.4 3.39ZM54.38 3V.22h3.15V3Zm0 1.84h3.15v11.35h-3.15ZM69.39 10.5c0 3.43-2.06 5.95-5.64 5.95s-5.56-2.52-5.56-5.89 2.12-6 5.71-6c3.32.03 5.49 2.44 5.49 5.94Zm-8 0c0 2.19 1 3.48 2.45 3.48s2.41-1.3 2.41-3.46c0-2.36-.87-3.48-2.45-3.48s-2.41 1.08-2.41 3.46ZM70.49 16.19v-9h-.93V4.86h.93v-1C70.49 1.53 71.65 0 74.1 0a6.33 6.33 0 0 1 1.44.13V2.6h-.66c-.92 0-1.26.33-1.26 1.55v.74h1.59v2.32h-1.59v9ZM75.7 7.94V4.86h3.08a19.63 19.63 0 0 1 .09 2A3.66 3.66 0 0 1 82.5 4.6v3c-2.27-.07-3.63.55-3.63 3.65v5H75.7ZM93.4 7.72V4.86h3a14 14 0 0 1 .13 1.44 3.47 3.47 0 0 1 3.28-1.71c2.28 0 3.75 1.56 3.75 4.4v7.2h-3.13V9.33c0-1.29-.42-2.21-1.82-2.21s-2.08.74-2.08 2.76v6.3H93.4ZM114.61 12.53c-.37 1.88-1.71 3.92-5.07 3.92-3.53 0-5.34-2.43-5.34-5.84s2-6 5.49-6c3.81 0 4.88 2.76 4.92 4h-3a1.77 1.77 0 0 0-1.95-1.56c-1.44 0-2.25 1.25-2.25 3.44 0 2.43.88 3.52 2.23 3.52a1.94 1.94 0 0 0 2-1.48ZM118 11.2c0 1.42.72 2.8 2.27 2.8a1.81 1.81 0 0 0 2-1.2h3.13a5 5 0 0 1-5.19 3.65c-3.73 0-5.35-2.78-5.35-5.75 0-3.56 1.81-6.1 5.46-6.1 3.88 0 5.21 2.82 5.21 5.64a7.79 7.79 0 0 1 0 1Zm4.37-1.93c0-1.31-.56-2.42-2.08-2.42s-2.1 1-2.22 2.42ZM41.46 13.25V8.51c0-2.71-1.67-3.89-4.68-3.92S32.35 5.9 32 7.63l2.9.59c.13-.83.43-1.37 1.75-1.37s1.75.78 1.75 1.59v.68h-1.62c-3.33 0-5.38 1.2-5.38 3.78 0 1.75 1.14 3.55 3.87 3.55 2 0 2.78-.74 3.19-1.38a5.12 5.12 0 0 0 .15 1.11h3a26.64 26.64 0 0 1-.15-2.93Zm-3.06-1.92c0 1.48-.24 2.89-2.23 2.89a1.46 1.46 0 0 1-1.64-1.51c0-1.1.7-1.69 2.61-1.69h1.26ZM92.13 13.25V8.51c0-2.71-1.66-3.89-4.68-3.92S83 5.9 82.68 7.63l2.89.59c.13-.83.44-1.37 1.75-1.37 1.47 0 1.75.78 1.75 1.59v.68h-1.62c-3.33 0-5.37 1.2-5.37 3.78 0 1.75 1.14 3.55 3.87 3.55 2 0 2.78-.74 3.2-1.38a4.13 4.13 0 0 0 .15 1.11h3a21.35 21.35 0 0 1-.17-2.93Zm-3.06-1.92c0 1.48-.24 2.89-2.22 2.89a1.46 1.46 0 0 1-1.64-1.51c0-1.1.7-1.69 2.59-1.69h1.27Z"/></svg>
